<svg xmlns="http://www.w3.org/2000/svg" version="1.1" xmlns:xlink="http://www.w3.org/1999/xlink" xmlns:svgjs="http://svgjs.dev/svgjs" viewBox="0 0 600 600"><path d="M403.7425231933594,240.71856689453125C356.5868326822917,211.97605005900064,339.37125396728516,91.46706899007161,311.2275390625,91.61676788330078C283.08382415771484,91.76646677652995,276.197598139445,217.36526362101236,234.88023376464844,241.61676025390625C193.5628693898519,265.8682568868001,69.31137466430664,213.77245076497397,63.3233528137207,237.12574768066406C57.335330963134766,260.4790445963542,192.96407890319824,329.6407292683919,198.9521026611328,381.7365417480469C204.94012641906738,433.83235422770184,78.14370981852214,538.1736806233724,99.25149536132812,549.7006225585938C120.35928090413411,561.2275644938151,258.53294881184894,448.80238850911456,325.59881591796875,450.898193359375C392.66468302408856,452.99399820963544,479.7904103597005,574.4011993408203,501.6466979980469,562.2754516601562C523.5029856363932,550.1497039794922,441.317377726237,427.84430440266925,456.7365417480469,378.1437072753906C472.15570576985675,328.443110148112,602.9940185546875,286.97605895996094,594.1616821289062,264.0718688964844C585.329345703125,241.1676788330078,450.89821370442706,269.46108373006183,403.7425231933594,240.71856689453125C356.5868326822917,211.97605005900064,339.37125396728516,91.46706899007161,311.2275390625,91.61676788330078" fill="url(&quot;#SvgjsLinearGradient1001&quot;)" fill-opacity="1"></path><defs><linearGradient id="SvgjsLinearGradient1001"><stop stop-color="hsl(184, 74%, 44%)" offset="0"></stop><stop stop-color="hsl(332, 87%, 70%)" offset="1"></stop></linearGradient><radialGradient id="SvgjsRadialGradient1002"><stop stop-color="hsl(340, 45%, 50%)" offset="0"></stop><stop stop-color="hsl(340, 45%, 80%)" offset="1"></stop></radialGradient></defs></svg>