<svg xmlns="http://www.w3.org/2000/svg" version="1.1" xmlns:xlink="http://www.w3.org/1999/xlink" xmlns:svgjs="http://svgjs.dev/svgjs" viewBox="0 0 600 600"><path d="M307.6347351074219,454.49102783203125C257.9341405232747,408.53293863932294,280.53892707824707,280.5389175415039,239.3712615966797,247.0059814453125C198.2035961151123,213.4730453491211,72.00598780314128,229.94011433919272,60.62874221801758,253.2934112548828C49.25149663289388,276.64670817057294,167.36527315775552,344.76049550374347,171.1077880859375,387.1257629394531C174.85030301411948,429.4910303751628,62.12574768066406,558.8323237101237,83.08383178710938,507.4850158691406C104.04191589355469,456.13770802815753,242.96407572428384,122.75448862711588,296.8562927246094,79.04191589355469C350.7485097249349,35.32934315999349,357.78443908691406,216.91616566975912,406.4371337890625,245.20957946777344C455.08982849121094,273.5029932657878,588.9221649169922,224.25149790445963,588.7724609375,248.80239868164062C588.6227569580078,273.3532994588216,414.0718485514323,346.8562978108724,405.5389099121094,392.5149841308594C397.00597127278644,438.1736704508464,553.8921915690104,512.4251759847006,537.5748291015625,522.7545166015625C521.2574666341146,533.0838572184244,357.33532969156903,500.44911702473956,307.6347351074219,454.49102783203125C257.9341405232747,408.53293863932294,280.53892707824707,280.5389175415039,239.3712615966797,247.0059814453125" fill="hsl(340, 45%, 50%)"></path></svg>